<?xml version="1.0" encoding="UTF-8" standalone="no"?>
<!DOCTYPE svg PUBLIC "-//W3C//DTD SVG 1.1//EN"
 "http://www.w3.org/Graphics/SVG/1.1/DTD/svg11.dtd">
<!-- Generated by graphviz version 2.43.0 (0)
 -->
<!-- Title: stm32/stm32.hh Pages: 1 -->
<svg width="455pt" height="140pt"
 viewBox="0.00 0.00 454.50 140.00" xmlns="http://www.w3.org/2000/svg" xmlns:xlink="http://www.w3.org/1999/xlink">
<g id="graph0" class="graph" transform="scale(1 1) rotate(0) translate(4 136)">
<title>stm32/stm32.hh</title>
<!-- Node1 -->
<g id="node1" class="node">
<title>Node1</title>
<g id="a_node1"><a xlink:title="object pointer and all headers">
<polygon fill="#bfbfbf" stroke="black" points="207.5,-112.5 207.5,-131.5 303.5,-131.5 303.5,-112.5 207.5,-112.5"/>
<text text-anchor="middle" x="255.5" y="-119.5" font-family="Helvetica,sans-Serif" font-size="10.00">stm32/stm32.hh</text>
</a>
</g>
</g>
<!-- Node2 -->
<g id="node2" class="node">
<title>Node2</title>
<g id="a_node2"><a xlink:href="stm32_8h.html" target="_top" xlink:title="access STM32 from ESP32 for communication and firware updat">
<polygon fill="none" stroke="black" points="81.5,-56.5 81.5,-75.5 171.5,-75.5 171.5,-56.5 81.5,-56.5"/>
<text text-anchor="middle" x="126.5" y="-63.5" font-family="Helvetica,sans-Serif" font-size="10.00">stm32/stm32.h</text>
</a>
</g>
</g>
<!-- Node1&#45;&gt;Node2 -->
<g id="edge1" class="edge">
<title>Node1&#45;&gt;Node2</title>
<path fill="none" stroke="midnightblue" d="M235.06,-112.44C213.83,-103.56 180.4,-89.56 156.25,-79.45"/>
<polygon fill="midnightblue" stroke="midnightblue" points="157.42,-76.15 146.84,-75.52 154.72,-82.61 157.42,-76.15"/>
</g>
<!-- Node6 -->
<g id="node6" class="node">
<title>Node6</title>
<g id="a_node6"><a xlink:href="stm32__uart__if_8hh.html" target="_top" xlink:title="interface for accessing STM32 for communication and firmware update">
<polygon fill="none" stroke="black" points="189.5,-56.5 189.5,-75.5 321.5,-75.5 321.5,-56.5 189.5,-56.5"/>
<text text-anchor="middle" x="255.5" y="-63.5" font-family="Helvetica,sans-Serif" font-size="10.00">stm32/stm32_uart_if.hh</text>
</a>
</g>
</g>
<!-- Node1&#45;&gt;Node6 -->
<g id="edge5" class="edge">
<title>Node1&#45;&gt;Node6</title>
<path fill="none" stroke="midnightblue" d="M255.5,-112.08C255.5,-105.01 255.5,-94.86 255.5,-85.99"/>
<polygon fill="midnightblue" stroke="midnightblue" points="259,-85.75 255.5,-75.75 252,-85.75 259,-85.75"/>
</g>
<!-- Node7 -->
<g id="node7" class="node">
<title>Node7</title>
<g id="a_node7"><a xlink:href="mutex_8hh.html" target="_top" xlink:title="thread mutex to protect USART read and write access">
<polygon fill="none" stroke="black" points="340,-56.5 340,-75.5 437,-75.5 437,-56.5 340,-56.5"/>
<text text-anchor="middle" x="388.5" y="-63.5" font-family="Helvetica,sans-Serif" font-size="10.00">stm32/mutex.hh</text>
</a>
</g>
</g>
<!-- Node1&#45;&gt;Node7 -->
<g id="edge7" class="edge">
<title>Node1&#45;&gt;Node7</title>
<path fill="none" stroke="midnightblue" d="M276.57,-112.44C298.56,-103.52 333.23,-89.44 358.16,-79.32"/>
<polygon fill="midnightblue" stroke="midnightblue" points="359.58,-82.52 367.52,-75.52 356.94,-76.04 359.58,-82.52"/>
</g>
<!-- Node3 -->
<g id="node3" class="node">
<title>Node3</title>
<g id="a_node3"><a xlink:href="mutex_8h.html" target="_top" xlink:title="thread mutex to protect USART read and write access">
<polygon fill="none" stroke="black" points="0,-0.5 0,-19.5 91,-19.5 91,-0.5 0,-0.5"/>
<text text-anchor="middle" x="45.5" y="-7.5" font-family="Helvetica,sans-Serif" font-size="10.00">stm32/mutex.h</text>
</a>
</g>
</g>
<!-- Node2&#45;&gt;Node3 -->
<g id="edge2" class="edge">
<title>Node2&#45;&gt;Node3</title>
<path fill="none" stroke="midnightblue" d="M113.49,-56.32C100.97,-47.98 81.82,-35.21 67.03,-25.35"/>
<polygon fill="midnightblue" stroke="midnightblue" points="68.74,-22.29 58.48,-19.65 64.86,-28.11 68.74,-22.29"/>
</g>
<!-- Node4 -->
<g id="node4" class="node">
<title>Node4</title>
<g id="a_node4"><a xlink:title=" ">
<polygon fill="none" stroke="#bfbfbf" points="109.5,-0.5 109.5,-19.5 171.5,-19.5 171.5,-0.5 109.5,-0.5"/>
<text text-anchor="middle" x="140.5" y="-7.5" font-family="Helvetica,sans-Serif" font-size="10.00">stdbool.h</text>
</a>
</g>
</g>
<!-- Node2&#45;&gt;Node4 -->
<g id="edge3" class="edge">
<title>Node2&#45;&gt;Node4</title>
<path fill="none" stroke="midnightblue" d="M128.81,-56.08C130.67,-48.93 133.34,-38.64 135.65,-29.69"/>
<polygon fill="midnightblue" stroke="midnightblue" points="139.11,-30.31 138.23,-19.75 132.33,-28.55 139.11,-30.31"/>
</g>
<!-- Node5 -->
<g id="node5" class="node">
<title>Node5</title>
<g id="a_node5"><a xlink:title=" ">
<polygon fill="none" stroke="#bfbfbf" points="216,-0.5 216,-19.5 269,-19.5 269,-0.5 216,-0.5"/>
<text text-anchor="middle" x="242.5" y="-7.5" font-family="Helvetica,sans-Serif" font-size="10.00">stdint.h</text>
</a>
</g>
</g>
<!-- Node2&#45;&gt;Node5 -->
<g id="edge4" class="edge">
<title>Node2&#45;&gt;Node5</title>
<path fill="none" stroke="midnightblue" d="M144.88,-56.44C163.72,-47.68 193.23,-33.94 214.88,-23.86"/>
<polygon fill="midnightblue" stroke="midnightblue" points="216.62,-26.91 224.21,-19.52 213.66,-20.56 216.62,-26.91"/>
</g>
<!-- Node6&#45;&gt;Node5 -->
<g id="edge6" class="edge">
<title>Node6&#45;&gt;Node5</title>
<path fill="none" stroke="midnightblue" d="M253.35,-56.08C251.63,-48.93 249.15,-38.64 247,-29.69"/>
<polygon fill="midnightblue" stroke="midnightblue" points="250.35,-28.65 244.61,-19.75 243.54,-30.29 250.35,-28.65"/>
</g>
<!-- Node8 -->
<g id="node8" class="node">
<title>Node8</title>
<g id="a_node8"><a xlink:title=" ">
<polygon fill="none" stroke="#bfbfbf" points="330.5,-0.5 330.5,-19.5 446.5,-19.5 446.5,-0.5 330.5,-0.5"/>
<text text-anchor="middle" x="388.5" y="-7.5" font-family="Helvetica,sans-Serif" font-size="10.00">utils_misc/mutex.hh</text>
</a>
</g>
</g>
<!-- Node7&#45;&gt;Node8 -->
<g id="edge8" class="edge">
<title>Node7&#45;&gt;Node8</title>
<path fill="none" stroke="midnightblue" d="M388.5,-56.08C388.5,-49.01 388.5,-38.86 388.5,-29.99"/>
<polygon fill="midnightblue" stroke="midnightblue" points="392,-29.75 388.5,-19.75 385,-29.75 392,-29.75"/>
</g>
</g>
</svg>
